<?xml version="1.0" encoding="UTF-8" standalone="no"?>
<svg
   width="65.980713"
   height="65.690727"
   viewBox="0 0 65.980713 65.690728"
   version="1.1"
   id="svg5"
   sodipodi:docname="bloomicon.svg"
   inkscape:version="1.3 (0e150ed, 2023-07-21)"
   inkscape:export-filename="bloomwordmark.svg"
   inkscape:export-xdpi="96"
   inkscape:export-ydpi="96"
   xmlns:inkscape="http://www.inkscape.org/namespaces/inkscape"
   xmlns:sodipodi="http://sodipodi.sourceforge.net/DTD/sodipodi-0.dtd"
   xmlns="http://www.w3.org/2000/svg"
   xmlns:svg="http://www.w3.org/2000/svg">
  <defs
     id="defs5" />
  <sodipodi:namedview
     id="namedview5"
     pagecolor="#ffffff"
     bordercolor="#000000"
     borderopacity="0.25"
     inkscape:showpageshadow="2"
     inkscape:pageopacity="0.0"
     inkscape:pagecheckerboard="0"
     inkscape:deskcolor="#d1d1d1"
     inkscape:zoom="1.0538031"
     inkscape:cx="173.18226"
     inkscape:cy="121.46482"
     inkscape:window-width="1312"
     inkscape:window-height="449"
     inkscape:window-x="73"
     inkscape:window-y="23"
     inkscape:window-maximized="0"
     inkscape:current-layer="g5" />
  <g
     id="g5"
     transform="translate(-351.81953,-327.54542)">
    <path
       d="m 403.80218,372.13193 0.82599,0.1906 1.49558,0.66471 0.71847,0.38124 1.29029,1.04591 1.69595,1.9941 0.435,0.64515 0.65003,1.32938 0.28346,0.6696 0.3617,1.36849 0.14175,0.68428 0.0732,1.36848 0.003,0.68424 -0.2004,1.34895 -0.13686,0.66959 -0.47409,1.29519 -0.26881,0.64027 -0.7429,1.21698 -0.40078,0.59139 -1.00193,1.10458 -1.78394,1.50045 -0.52783,0.37632 -1.37339,0.58162 -0.71358,0.25903 -1.56889,0.32748 -0.78689,0.13199 -1.53466,0.0342 -0.7429,-0.0195 -1.27564,-0.29324 -0.78199,-0.25415 -1.41738,-0.66958 -0.67937,-0.3568 -1.19743,-0.85041 -0.57184,-0.44966 -0.96772,-1.01172 -0.45453,-0.52786 -0.72824,-1.15343 -0.33724,-0.59628 -0.47407,-1.27075 -0.20039,-0.65002 -0.21018,-1.3685 -0.0686,-0.69403 0.0686,-1.4467 0.435,-2.22381 0.17103,-0.59138 0.4643,-1.0997 0.24928,-0.53272 0.60605,-0.96284 0.31769,-0.46431 0.74289,-0.8309 0.38612,-0.39588 0.86996,-0.68423 0.44965,-0.32258 0.98728,-0.53274 0.5083,-0.24925 1.09482,-0.37635 0.56203,-0.16616 1.19744,-0.21506 1.89634,-0.12711 h 0.93352 m 0.71358,-9.03698 0.47898,0.009 0.81619,0.0243 0.38612,0.0151 0.6647,0.0586 0.32259,0.0293 0.56694,0.093 0.55717,0.10763 1.04592,0.36655 0.27371,0.11252 0.60115,0.26882 1.02148,0.48874 0.41056,0.20526 0.88463,0.52786 0.44966,0.28348 0.92372,0.6598 0.92864,0.67938 1.75949,1.53955 0.41055,0.38123 0.73802,0.74778 0.35188,0.36655 0.56697,0.68427 0.25904,0.32744 0.3519,0.56697 0.21994,0.66958 v 0.093 l -0.12224,0.24437 -0.0833,0.12711 -0.25416,0.28347 -0.28345,0.29815 -0.81133,0.61584 -0.42522,0.29811 -0.87485,0.47409 -0.21015,0.0976 -0.37637,0.13687 -0.47898,0.0881 h -0.0881 l -0.28838,-0.15151 -0.15638,-0.0977 -0.39589,-0.31767 -1.34894,-1.35874 -0.49364,-0.57672 -1.1339,-0.99705 -0.5914,-0.4741 -1.29518,-0.79175 -0.66958,-0.36657 -1.42225,-0.57671 -0.72335,-0.25906 -1.50534,-0.34702 -0.75755,-0.14661 -1.54937,-0.12223 -0.77711,-0.0292 -1.55422,0.12222 -0.77221,0.093 -1.51025,0.36658 -2.18471,0.84063 -0.73802,0.36167 -1.35381,0.9042 -0.65496,0.47407 -1.1681,1.10946 -0.56204,0.57673 -0.96286,1.27075 -0.45941,0.65492 -0.74291,1.40272 -0.34211,0.71358 -0.50831,1.49555 -0.21993,0.75268 -0.24927,1.54933 -0.093,0.782 0.0244,1.56399 0.36656,2.33136 0.15638,0.60605 0.32258,1.26095 0.0732,0.29815 0.13198,0.51807 0.14662,0.5914 0.0489,0.21016 v 0.35678 l -0.0195,0.17593 -0.16615,0.31767 -0.10279,0.15639 -0.35681,0.3226 -0.78197,0.53762 -0.31281,0.18567 -0.54251,0.29814 -0.25413,0.13687 -0.44964,0.18082 -0.21506,0.0732 -0.37146,0.0638 -0.17592,0.015 -0.31768,-0.0638 -0.15153,-0.0439 -0.2688,-0.19548 -0.132,-0.11252 -0.24924,-0.33235 -0.12223,-0.1808 -0.23949,-0.47409 -0.11734,-0.25414 -0.24927,-0.61583 -0.16616,-0.435 -0.25415,-0.92375 -0.11251,-0.47896 -0.16127,-1.10458 -0.0684,-0.58161 -0.0781,-1.39292 -0.0393,-2.53662 v -0.59627 l 0.009,-1.00683 0.003,-0.47896 0.0293,-0.81134 0.0342,-0.77222 0.16616,-1.17788 0.10763,-0.55716 0.36654,-1.0557 0.10764,-0.2737 0.2639,-0.60119 0.48387,-1.02147 0.48874,-1.00196 1.24142,-1.867 0.66471,-0.90417 1.57866,-1.64709 0.826,-0.79179 1.87189,-1.39783 3.11822,-1.78881 0.38125,-0.17592 0.65981,-0.30304 0.31768,-0.14175 0.57183,-0.22971 0.56208,-0.21505 1.07524,-0.24925 0.56695,-0.10762 1.39291,-0.093 0.38614,-0.015 0.90907,-0.015 1.60309,-0.009 h 0.60116 m -1.20722,14.41808 -0.60115,0.0781 -0.28836,0.0536 -0.53761,0.21505 -0.26393,0.12711 -0.53763,0.38123 -0.88953,0.80642 -0.34214,0.34213 -0.52783,0.73312 -0.2346,0.37145 -0.3177,0.76247 -0.13199,0.38609 -0.1125,0.77223 -0.0293,0.38611 0.0881,0.76244 0.0684,0.37144 0.2835,0.71847 0.16615,0.35191 0.47406,0.64514 0.26392,0.31769 0.65983,0.5523 1.19743,0.70379 0.29815,0.13687 0.46919,0.21504 0.21993,0.10249 0.34214,0.15149 0.32256,0.13687 0.43988,0.0833 0.21504,0.015 0.46922,-0.14664 0.13199,-0.0537 0.33234,-0.13688 0.1808,-0.0781 0.44964,-0.19061 0.53762,-0.22482 0.87,-0.5865 0.40567,-0.3128 0.60603,-0.76736 0.26882,-0.40563 0.33721,-0.94329 0.20041,-1.61289 v -0.33233 l -0.11251,-0.65494 -0.0732,-0.32256 -0.24924,-0.6256 -0.2786,-0.61094 -0.87486,-1.05571 -0.47896,-0.48875 -1.16326,-0.68424 -0.303,-0.14175 -0.63048,-0.18568 -0.96773,-0.11734 z"
       fill="#905fee"
       id="path2"
       style="stroke-width:0.488749"
       inkscape:export-filename="bloomicon.svg"
       inkscape:export-xdpi="127.68739"
       inkscape:export-ydpi="127.68739" />
    <path
       d="m 365.49404,340.73468 0.9726,0.10279 1.87679,0.43986 0.92864,0.25907 1.76927,0.7331 0.86996,0.40076 1.64221,1.00684 0.80155,0.53273 1.4809,1.25612 0.71846,0.65491 1.29519,1.48089 0.6256,0.76246 1.0899,1.68131 0.51319,0.86019 0.85531,1.85723 0.98239,2.95695 0.24437,0.93839 0.24438,1.92569 0.0881,0.96771 -0.0488,1.94032 -0.0585,0.96774 -0.33236,1.92079 -0.20038,0.95305 -0.59626,1.85726 -0.33237,0.91885 -0.85041,1.75459 -0.45942,0.86511 -1.0899,1.61286 -0.57673,0.78687 -1.31476,1.43693 -2.21403,1.90124 -0.42521,0.31281 -0.98239,0.60116 -0.50341,0.29815 -1.09479,0.55227 -1.10457,0.53762 -2.27758,0.83577 -0.55228,0.18568 -1.04592,0.27859 -0.5083,0.12711 -0.90419,0.14664 -0.4301,0.0586 -0.70378,-0.003 -0.3177,-0.0195 -0.43987,-0.1759 -0.0976,-0.0638 -0.1564,-0.25415 -0.0686,-0.15151 -0.093,-0.42522 -0.0439,-0.23461 -0.0293,-0.58161 0.0243,-1.03614 0.15152,-2.36066 2.44375,-0.55718 0.82599,-0.19061 1.38316,-0.43497 0.65981,-0.23949 1.16811,-0.59629 0.56694,-0.32256 1.08992,-0.83576 1.70572,-1.61777 0.41056,-0.42521 0.69402,-0.77222 0.32748,-0.38123 0.5425,-0.70379 0.51318,-0.69892 0.65491,-1.37829 0.13688,-0.35677 0.20528,-0.76245 0.088,-0.391 0.12204,-0.86997 0.0537,-0.44965 0.0585,-1.01172 0.0293,-1.73506 v -0.44531 l -0.009,-0.7869 -0.009,-0.37633 -0.0243,-0.6647 -0.0343,-0.64027 -0.13198,-1.00682 -0.0781,-0.47407 -0.23948,-0.80645 -0.52295,-1.16321 -0.19551,-0.36659 -0.49364,-0.74777 -0.26392,-0.37633 -0.60604,-0.7478 -0.62561,-0.74779 -1.47114,-1.39292 -0.75268,-0.6647 -1.52978,-1.06059 -0.37633,-0.2346 -0.72335,-0.37146 -1.00682,-0.38609 -0.62071,-0.17104 -1.00195,-0.26883 -0.46431,-0.12711 -0.72335,-0.21016 -0.33233,-0.10249 -0.49365,-0.19059 -0.21996,-0.0977 -0.30789,-0.21507 -0.13687,-0.10761 -0.17104,-0.26883 -0.0732,-0.14175 -0.0781,-0.36168 -0.0293,-0.19552 -0.0344,-0.4936 -0.0488,-0.92862 -0.14662,-2.60017 m 2.35089,9.55507 0.68422,0.0833 1.16322,0.33233 0.55718,0.2004 1.02149,0.59627 1.54444,1.26098 0.37145,0.35189 0.64517,0.7429 0.30792,0.38123 0.52783,0.80155 0.49363,0.80643 0.63537,1.73506 0.25904,0.87486 0.17591,1.79861 0.0342,0.89929 -0.25902,1.77415 -0.18081,0.87486 -0.67936,1.66176 -0.39101,0.80644 -1.08012,1.45646 -0.5865,0.69892 -1.46136,1.1681 -0.38612,0.26883 -0.84553,0.46919 -1.36851,0.5865 -0.73801,0.25903 -1.29518,0.30303 -0.63047,0.11734 -1.18767,0.009 -0.59139,-0.0293 -1.20723,-0.29323 -0.62071,-0.18081 -1.36359,-0.59627 -0.53275,-0.25416 -0.97749,-0.57183 -0.47408,-0.29813 -0.85043,-0.65493 -0.41056,-0.33726 -0.72334,-0.73799 -0.34213,-0.37634 -0.59139,-0.81621 -0.27856,-0.41545 -0.45456,-0.87973 -0.21505,-0.45455 -0.31769,-0.94816 -0.14175,-0.48386 -0.18079,-1.01662 -0.10847,-1.58921 v -0.75268 l 0.21016,-1.42226 0.13687,-0.69891 0.46431,-1.30007 0.26393,-0.63536 0.69889,-1.15345 0.37636,-0.55719 0.90419,-0.98727 0.47897,-0.4692 1.09479,-0.79178 0.56695,-0.36655 1.25121,-0.57672 0.64515,-0.25904 1.39293,-0.33236 2.21891,-0.20528 h 0.88953 m -1.37827,5.37626 -1.00683,0.23459 -0.48873,0.15642 -0.88466,0.51806 -0.42032,0.29326 -0.71358,0.7771 -0.82597,1.41738 -0.19551,0.47407 -0.1564,0.93354 -0.0392,0.46427 0.16128,0.91399 0.11732,0.45452 0.47899,0.89443 1.07525,1.32938 0.27371,0.27372 0.50341,0.40565 0.24925,0.18568 0.5083,0.2444 0.26392,0.10761 0.58651,0.12205 1.05082,0.0638 h 0.39588 l 0.65492,-0.0638 0.3128,-0.0489 0.53762,-0.18081 0.25905,-0.10248 0.4985,-0.32748 0.24928,-0.1808 0.52784,-0.49851 0.43498,-0.43988 0.64028,-0.88952 0.27856,-0.44478 0.3177,-0.90419 0.12223,-0.45453 v -0.92374 l -0.35191,-1.40756 -0.21992,-0.52786 -0.60606,-0.88951 -0.33234,-0.42036 -0.80155,-0.65003 -0.42033,-0.29325 -0.95304,-0.38122 -1.54446,-0.2346 z"
       fill="#ef75f7"
       id="path3"
       style="stroke-width:0.488749" />
    <path
       d="m 384.11537,328.83853 0.33235,0.0832 0.1808,0.0489 0.42519,0.16616 1.39783,0.7038 0.31769,0.19552 0.4594,0.34212 0.20529,0.16615 0.25904,0.3128 0.10762,0.16126 0.0832,0.33239 -0.0439,0.56695 -0.17591,0.74778 -0.28838,1.26094 -0.13197,0.5914 -0.21017,0.98728 -0.0976,0.46431 -0.13686,0.78199 -0.0638,0.37144 -0.0732,0.63051 -0.0586,0.60603 0.0586,1.02639 0.30301,1.74972 0.13687,0.65005 0.3959,1.2463 0.21504,0.61094 0.54739,1.15344 0.29328,0.56695 0.69891,1.05571 0.36167,0.51806 0.83575,0.95795 0.435,0.46432 0.97259,0.85043 0.50343,0.40565 1.0948,0.73314 0.56694,0.35189 1.22187,0.61093 1.95988,0.76735 0.61095,0.20036 1.26585,0.2444 0.64027,0.093 1.30007,0.0488 0.65493,-0.003 1.30986,-0.14173 0.65492,-0.0977 1.28541,-0.32256 0.64024,-0.1857 1.23166,-0.49853 0.61095,-0.26881 1.14856,-0.66468 0.56205,-0.35191 1.04104,-0.81622 1.39782,-1.39292 0.46432,-0.54252 0.93351,-0.85043 0.21504,-0.18079 0.36656,-0.24436 0.40077,-0.1564 0.28837,0.003 0.80646,0.30791 0.41542,0.1906 0.85529,0.54742 0.41057,0.28835 0.64513,0.60606 0.13688,0.14663 0.18568,0.26882 0.11734,0.35189 v 0.18081 l -0.21994,0.49364 -0.14174,0.26882 -0.45943,0.63536 -0.25904,0.33236 -0.65492,0.72335 -0.34701,0.36655 -0.79665,0.76735 -0.8211,0.76733 -1.85237,1.45159 -0.45942,0.34211 -0.91399,0.60117 -1.30004,0.73801 -0.70381,0.34699 -1.12899,0.48386 -0.54743,0.21507 -1.0557,0.27858 -0.54739,0.11734 -1.30495,0.13199 -0.35189,0.0293 -0.81623,0.0439 -1.4076,0.0488 -0.76733,0.0195 -1.37339,-0.009 -0.65493,-0.009 -1.13876,-0.0732 -0.53762,-0.0488 -0.89444,-0.13687 -0.41543,-0.0781 -0.63536,-0.20037 -0.90908,-0.35191 -1.67152,-0.77222 -0.81623,-0.3959 -1.49557,-0.87975 -0.72822,-0.45453 -1.31963,-0.98727 -0.64028,-0.50832 -1.15343,-1.09966 -0.55228,-0.56693 -0.98727,-1.21701 -0.46922,-0.6256 -0.82108,-1.33917 -0.39101,-0.68915 -0.65981,-1.46622 -0.82111,-2.34113 -0.18566,-0.65492 -0.24439,-1.4858 -0.10248,-0.76734 -0.0781,-1.63243 -0.0243,-0.82597 0.0638,-1.66174 0.0488,-0.82598 0.19063,-1.58355 0.1125,-0.76735 0.30303,-1.39294 0.16615,-0.66469 0.40566,-1.08993 0.21017,-0.49361 0.48386,-0.67446 0.1271,-0.14177 0.26394,-0.17592 0.41054,-0.1125 m 18.36232,-1.18277 1.85723,0.391 0.56206,0.16127 1.05083,0.45455 0.51317,0.24436 0.93841,0.60607 0.45454,0.31768 0.8113,0.74778 0.39102,0.38612 0.67936,0.86997 0.32258,0.44965 0.54251,0.98238 0.24925,0.50341 0.38611,1.08502 0.17104,0.5523 0.22481,1.16811 0.14664,1.83281 0.003,0.61584 -0.0536,0.98725 -0.0393,0.45942 -0.17592,0.79667 -0.10248,0.39588 -0.34214,0.77713 -0.75267,1.32939 -0.30791,0.5034 -0.74288,0.91886 -0.391,0.44476 -0.87488,0.79667 -0.44963,0.3861 -0.97751,0.65981 -0.49852,0.3128 -1.04105,0.50831 -0.52784,0.2346 -1.07525,0.34212 -0.53762,0.14664 -1.07525,0.16127 -0.53274,0.0586 -1.04102,-0.0393 -0.51321,-0.0439 -0.96772,-0.24928 -0.64515,-0.20526 -1.28539,-0.58651 -0.63538,-0.31768 -1.19255,-0.75269 -0.57673,-0.39098 -0.99216,-0.84556 -1.14369,-1.30007 -0.36654,-0.53762 -0.57673,-1.09968 -0.26394,-0.55228 -0.37632,-1.11435 -0.16616,-0.55719 -0.18568,-1.10944 -0.0686,-0.55717 -0.009,-1.0948 0.0195,-0.54254 0.1564,-1.06546 0.0977,-0.52293 0.31281,-1.01662 0.17591,-0.49853 0.45944,-0.95307 0.24438,-0.46919 0.59139,-0.86997 0.31279,-0.43011 0.71359,-0.7771 0.37145,-0.37633 0.8211,-0.66959 0.42519,-0.3226 0.92374,-0.54251 0.46921,-0.25415 1.01171,-0.40565 0.51318,-0.1857 1.08992,-0.24924 0.5474,-0.10249 1.15345,-0.0732 0.58159,-0.0195 m -0.36654,5.61084 -0.62561,0.12223 -0.3128,0.0783 -0.61581,0.25904 -0.30792,0.14661 -0.59629,0.39589 -0.86996,0.74289 -0.50342,0.50341 -0.66471,1.05081 -0.27858,0.53275 -0.21992,1.08504 -0.0489,0.54248 0.23464,1.08505 0.86507,1.57863 0.43498,0.55231 1.00195,0.79667 0.51806,0.34211 1.13391,0.37145 0.57672,0.13198 1.20723,-0.0638 0.60603,-0.0881 1.22187,-0.51806 0.35678,-0.18082 0.60117,-0.49361 0.28347,-0.26394 0.45454,-0.62071 0.21018,-0.32744 0.30301,-0.71848 0.13198,-0.36658 0.14175,-0.7722 0.0537,-0.391 -0.0195,-0.7869 -0.0293,-0.39589 -0.18566,-0.7722 -0.11735,-0.37636 -0.3568,-0.71356 -0.73802,-0.95794 -0.26394,-0.26392 -0.56202,-0.42523 -0.28349,-0.19548 -0.58649,-0.2835 -0.29815,-0.12711 -0.61093,-0.15151 -0.3079,-0.0586 -0.62071,-0.015 z"
       fill="#ffac92"
       id="path4"
       style="stroke-width:0.488749" />
  </g>
</svg>
