<?xml version="1.0" encoding="UTF-8" standalone="no"?>
<svg
   width="64.191658"
   height="63.909088"
   viewBox="0 0 64.191658 63.909088"
   version="1.1"
   id="svg5"
   sodipodi:docname="gobiicon.svg"
   inkscape:version="1.3 (0e150ed, 2023-07-21)"
   inkscape:export-filename="bloomwordmark.png"
   inkscape:export-xdpi="96"
   inkscape:export-ydpi="96"
   xmlns:inkscape="http://www.inkscape.org/namespaces/inkscape"
   xmlns:sodipodi="http://sodipodi.sourceforge.net/DTD/sodipodi-0.dtd"
   xmlns="http://www.w3.org/2000/svg"
   xmlns:svg="http://www.w3.org/2000/svg">
  <defs
     id="defs5" />
  <sodipodi:namedview
     id="namedview5"
     pagecolor="#ffffff"
     bordercolor="#000000"
     borderopacity="0.25"
     inkscape:showpageshadow="2"
     inkscape:pageopacity="0.0"
     inkscape:pagecheckerboard="0"
     inkscape:deskcolor="#d1d1d1"
     inkscape:zoom="1.0538031"
     inkscape:cx="173.18226"
     inkscape:cy="121.46482"
     inkscape:window-width="1312"
     inkscape:window-height="449"
     inkscape:window-x="73"
     inkscape:window-y="23"
     inkscape:window-maximized="0"
     inkscape:current-layer="g5" />
  <g
     id="g5"
     transform="translate(-204,-376.35099)">
    <path
       d="m 254.57322,419.72842 0.80358,0.18543 1.45501,0.64668 0.69898,0.37089 1.25529,1.01754 1.64995,1.94001 0.42319,0.62764 0.6324,1.29333 0.27578,0.65143 0.35188,1.33137 0.1379,0.66571 0.0712,1.33136 0.003,0.66569 -0.19497,1.31235 -0.13315,0.65143 -0.46123,1.26005 -0.26151,0.6229 -0.72275,1.18397 -0.38991,0.57535 -0.97475,1.07461 -1.73554,1.45975 -0.51352,0.36611 -1.33613,0.56584 -0.69423,0.25201 -1.52633,0.31859 -0.76554,0.12841 -1.49303,0.0332 -0.72275,-0.019 -1.24104,-0.28528 -0.76077,-0.24726 -1.37893,-0.65142 -0.66094,-0.34712 -1.16496,-0.82735 -0.55631,-0.43745 -0.94147,-0.98427 -0.44221,-0.51354 -0.70848,-1.12215 -0.32809,-0.58011 -0.46122,-1.23628 -0.19495,-0.63238 -0.20447,-1.33138 -0.0667,-0.6752 0.0667,-1.40746 0.4232,-2.16348 0.16639,-0.57534 0.4517,-1.06987 0.24252,-0.51827 0.5896,-0.93672 0.30908,-0.45171 0.72273,-0.80836 0.37565,-0.38514 0.84637,-0.66568 0.43745,-0.31382 0.96049,-0.51829 0.49451,-0.2425 1.06512,-0.36613 0.54679,-0.16165 1.16496,-0.20923 1.8449,-0.12366 h 0.9082 m 0.69421,-8.79183 0.46599,0.009 0.79406,0.0237 0.37564,0.0146 0.64667,0.057 0.31383,0.0285 0.55156,0.0905 0.54207,0.10471 1.01754,0.35661 0.26629,0.10946 0.58484,0.26153 0.99377,0.47549 0.39942,0.19969 0.86063,0.51354 0.43747,0.27579 0.89866,0.6419 0.90345,0.66095 1.71176,1.49779 0.39941,0.37088 0.718,0.7275 0.34234,0.35661 0.55158,0.6657 0.25201,0.31857 0.34236,0.55158 0.21397,0.65142 v 0.0905 l -0.11891,0.23775 -0.081,0.12366 -0.24726,0.27578 -0.27577,0.29006 -0.78932,0.59913 -0.41368,0.29003 -0.85112,0.46122 -0.20445,0.095 -0.36615,0.13316 -0.46599,0.0857 h -0.0857 l -0.28056,-0.14741 -0.15214,-0.095 -0.38515,-0.30906 -1.31235,-1.32188 -0.48025,-0.56108 -1.10314,-0.96999 -0.57535,-0.46124 -1.26005,-0.77028 -0.65141,-0.35662 -1.38368,-0.56108 -0.70373,-0.25202 -1.4645,-0.33761 -0.73701,-0.14264 -1.50733,-0.11891 -0.75603,-0.0285 -1.51206,0.1189 -0.75126,0.0905 -1.46928,0.35662 -2.12545,0.81783 -0.71799,0.35186 -1.3171,0.87967 -0.63718,0.46121 -1.13642,1.07937 -0.5468,0.56108 -0.93673,1.23628 -0.44695,0.63716 -0.72275,1.36466 -0.33284,0.69423 -0.49452,1.45498 -0.21396,0.73226 -0.24251,1.5073 -0.0905,0.76079 0.0238,1.52156 0.35661,2.26811 0.15214,0.58961 0.31383,1.22676 0.0712,0.29006 0.1284,0.50401 0.14265,0.57536 0.0475,0.20446 v 0.3471 l -0.019,0.17115 -0.16165,0.30906 -0.1,0.15215 -0.34712,0.31384 -0.76076,0.52304 -0.30433,0.18063 -0.52779,0.29006 -0.24724,0.13316 -0.43745,0.1759 -0.20922,0.0712 -0.36138,0.062 -0.17115,0.0146 -0.30906,-0.062 -0.14741,-0.0427 -0.26152,-0.19018 -0.12841,-0.10946 -0.24249,-0.32334 -0.11891,-0.1759 -0.23299,-0.46122 -0.11416,-0.24725 -0.24251,-0.59912 -0.16165,-0.4232 -0.24726,-0.89869 -0.10945,-0.46597 -0.1569,-1.07462 -0.0665,-0.56582 -0.076,-1.35515 -0.0382,-2.4678 v -0.5801 l 0.009,-0.97951 0.003,-0.46597 0.0285,-0.78933 0.0332,-0.75128 0.16165,-1.14592 0.10471,-0.54205 0.35661,-1.02706 0.10471,-0.26628 0.25675,-0.58488 0.47074,-0.99376 0.47548,-0.97477 1.20775,-1.81637 0.64667,-0.87964 1.53584,-1.60241 0.80359,-0.7703 1.82111,-1.35992 3.03364,-1.74029 0.3709,-0.17115 0.64191,-0.29482 0.30907,-0.1379 0.55631,-0.22348 0.54684,-0.20921 1.04607,-0.24249 0.55157,-0.10471 1.35513,-0.0905 0.37566,-0.0146 0.88441,-0.0146 1.55961,-0.009 h 0.58485 m -1.17447,14.02696 -0.58485,0.076 -0.28054,0.0522 -0.52303,0.20921 -0.25677,0.12366 -0.52304,0.37088 -0.86539,0.78455 -0.33286,0.33285 -0.51352,0.71323 -0.22823,0.36138 -0.30909,0.74178 -0.12841,0.37562 -0.10945,0.75128 -0.0285,0.37564 0.0857,0.74176 0.0665,0.36136 0.2758,0.69898 0.16164,0.34236 0.46121,0.62765 0.25676,0.30907 0.64193,0.53731 1.16494,0.6847 0.29006,0.13316 0.45647,0.20921 0.21396,0.0997 0.33286,0.14739 0.31381,0.13316 0.42794,0.081 0.20921,0.0146 0.4565,-0.14266 0.1284,-0.0522 0.32333,-0.13316 0.1759,-0.076 0.43744,-0.18543 0.52304,-0.21873 0.84639,-0.57059 0.39466,-0.30432 0.5896,-0.74653 0.26153,-0.39464 0.32806,-0.91769 0.19497,-1.56914 v -0.32332 l -0.10946,-0.63717 -0.0712,-0.31382 -0.24248,-0.60862 -0.27104,-0.59437 -0.85113,-1.02707 -0.46597,-0.47549 -1.1317,-0.66568 -0.29478,-0.1379 -0.61338,-0.18065 -0.94148,-0.11416 z"
       fill="#905fee"
       id="path2"
       style="stroke-width:0.475491"
       inkscape:export-filename="gobiicon.svg"
       inkscape:export-xdpi="96"
       inkscape:export-ydpi="96" />
    <path
       d="m 217.30425,389.18288 0.94622,0.1 1.82588,0.42792 0.90345,0.25204 1.72127,0.71322 0.84636,0.38989 1.59766,0.97952 0.77981,0.51829 1.44073,1.22203 0.69897,0.63715 1.26006,1.44073 0.60863,0.74176 1.06033,1.63571 0.49927,0.83685 0.83211,1.80686 0.95574,2.87673 0.23774,0.91294 0.23775,1.87345 0.0857,0.94146 -0.0475,1.88768 -0.057,0.94149 -0.32334,1.86869 -0.19495,0.9272 -0.58008,1.80687 -0.32336,0.89393 -0.82734,1.70699 -0.44696,0.84164 -1.06034,1.56911 -0.56108,0.76553 -1.27909,1.39795 -2.15397,1.84966 -0.41367,0.30433 -0.95574,0.58485 -0.48975,0.29006 -1.0651,0.53729 -1.0746,0.52303 -2.21581,0.8131 -0.5373,0.18065 -1.01754,0.27104 -0.49451,0.12366 -0.87967,0.14265 -0.41843,0.057 -0.68469,-0.003 -0.30908,-0.019 -0.42794,-0.17113 -0.095,-0.062 -0.15215,-0.24726 -0.0667,-0.1474 -0.0905,-0.41368 -0.0427,-0.22825 -0.0285,-0.56584 0.0237,-1.00802 0.14741,-2.29663 2.37745,-0.54206 0.80359,-0.18545 1.34564,-0.42317 0.64191,-0.23299 1.13642,-0.58012 0.55156,-0.31381 1.06037,-0.81309 1.65944,-1.57388 0.39942,-0.41367 0.67519,-0.75127 0.3186,-0.3709 0.52778,-0.6847 0.49926,-0.67996 0.63715,-1.34089 0.13316,-0.34709 0.19972,-0.74178 0.0856,-0.38039 0.11873,-0.84637 0.0522,-0.43746 0.057,-0.98426 0.0285,-1.688 v -0.43323 l -0.009,-0.76555 -0.009,-0.36612 -0.0237,-0.64667 -0.0333,-0.6229 -0.1284,-0.97951 -0.076,-0.46122 -0.23299,-0.78456 -0.50877,-1.13167 -0.1902,-0.35663 -0.48025,-0.72749 -0.25676,-0.36613 -0.5896,-0.72751 -0.60864,-0.7275 -1.43123,-1.35514 -0.73226,-0.64667 -1.48828,-1.03181 -0.36612,-0.22824 -0.70373,-0.36139 -0.97951,-0.37562 -0.60387,-0.1664 -0.97477,-0.26153 -0.45172,-0.12366 -0.70372,-0.20446 -0.32332,-0.0997 -0.48026,-0.18543 -0.21399,-0.095 -0.29954,-0.20924 -0.13316,-0.1047 -0.1664,-0.26153 -0.0712,-0.13791 -0.076,-0.35187 -0.0285,-0.19021 -0.0335,-0.48022 -0.0475,-0.90343 -0.14265,-2.52963 m 2.28712,9.29587 0.66566,0.081 1.13167,0.32332 0.54206,0.19496 0.99379,0.58009 1.50254,1.22678 0.36137,0.34234 0.62767,0.72275 0.29956,0.37089 0.51352,0.77981 0.48024,0.78455 0.61813,1.68799 0.25201,0.85113 0.17115,1.74982 0.0332,0.87489 -0.252,1.72603 -0.1759,0.85113 -0.66093,1.61668 -0.3804,0.78456 -1.05083,1.41695 -0.57058,0.67996 -1.42173,1.13642 -0.37563,0.26153 -0.8226,0.45647 -1.33138,0.57058 -0.718,0.25201 -1.26004,0.29481 -0.61338,0.11416 -1.15545,0.009 -0.57534,-0.0285 -1.17448,-0.28528 -0.60387,-0.17589 -1.3266,-0.58011 -0.5183,-0.24726 -0.95098,-0.55632 -0.46122,-0.29004 -0.82736,-0.63717 -0.39942,-0.3281 -0.70372,-0.71798 -0.33284,-0.36613 -0.57535,-0.79406 -0.27101,-0.40419 -0.44223,-0.85586 -0.20922,-0.44222 -0.30906,-0.92244 -0.13791,-0.47074 -0.17589,-0.98904 L 204,408.27859 v -0.73226 l 0.20446,-1.38368 0.13316,-0.67995 0.45171,-1.2648 0.25677,-0.61812 0.67994,-1.12217 0.36614,-0.54207 0.87966,-0.96049 0.46598,-0.45647 1.06509,-0.7703 0.55157,-0.35662 1.21728,-0.56107 0.62764,-0.25201 1.35514,-0.32334 2.15873,-0.19971 h 0.8654 m -1.34088,5.23041 -0.97953,0.22824 -0.47547,0.15216 -0.86066,0.50401 -0.40892,0.28531 -0.69422,0.75602 -0.80356,1.37893 -0.19021,0.46121 -0.15216,0.90821 -0.0382,0.45169 0.15691,0.88919 0.11414,0.44219 0.46599,0.87016 1.04609,1.29333 0.26629,0.26629 0.48975,0.39464 0.24248,0.18065 0.49452,0.23776 0.25676,0.1047 0.5706,0.11873 1.02231,0.062 h 0.38514 l 0.63716,-0.062 0.30431,-0.0475 0.52304,-0.1759 0.25202,-0.0997 0.48499,-0.3186 0.24251,-0.17589 0.51352,-0.48499 0.42318,-0.42795 0.62291,-0.86538 0.27101,-0.43272 0.30908,-0.87966 0.11891,-0.4422 v -0.89868 l -0.34236,-1.36938 -0.21396,-0.51354 -0.58962,-0.86539 -0.32331,-0.40895 -0.77981,-0.6324 -0.40894,-0.2853 -0.92719,-0.37087 -1.50255,-0.22823 z"
       fill="#ef75f7"
       id="path3"
       style="stroke-width:0.475491" />
    <path
       d="m 235.42045,377.60942 0.32333,0.081 0.17589,0.0475 0.41366,0.16165 1.35991,0.68471 0.30908,0.19021 0.44694,0.33284 0.19972,0.16165 0.25201,0.30431 0.1047,0.15689 0.081,0.32336 -0.0427,0.55157 -0.17114,0.7275 -0.28055,1.22675 -0.12839,0.57535 -0.20447,0.9605 -0.095,0.45171 -0.13315,0.76078 -0.062,0.36137 -0.0712,0.61339 -0.057,0.5896 0.057,0.99854 0.2948,1.70226 0.13315,0.63241 0.38516,1.2125 0.20921,0.59437 0.53255,1.12215 0.28531,0.55157 0.67995,1.02707 0.35186,0.50401 0.81309,0.93196 0.42319,0.45172 0.94621,0.82736 0.48977,0.39465 1.0651,0.71325 0.55156,0.34235 1.18873,0.59435 1.90672,0.74653 0.59437,0.19494 1.23152,0.23776 0.62289,0.0905 1.2648,0.0475 0.63717,-0.003 1.27433,-0.1379 0.63715,-0.095 1.25054,-0.31382 0.62288,-0.18065 1.19825,-0.48501 0.59437,-0.26152 1.1174,-0.64665 0.54681,-0.34236 1.0128,-0.79408 1.3599,-1.35514 0.45172,-0.5278 0.90819,-0.82735 0.20921,-0.17589 0.35661,-0.23774 0.38991,-0.15216 0.28054,0.003 0.78458,0.29955 0.40415,0.18544 0.8321,0.53257 0.39942,0.28052 0.62764,0.58962 0.13316,0.14266 0.18065,0.26153 0.11415,0.34234 v 0.1759 l -0.21396,0.48025 -0.13791,0.26153 -0.44697,0.61813 -0.25201,0.32334 -0.63715,0.70372 -0.33759,0.35662 -0.77505,0.74653 -0.79883,0.74652 -1.80212,1.41221 -0.44695,0.33283 -0.88919,0.58486 -1.26478,0.718 -0.68472,0.33757 -1.09837,0.47074 -0.53257,0.20923 -1.02706,0.27102 -0.53255,0.11416 -1.26955,0.12841 -0.34234,0.0285 -0.79409,0.0427 -1.36942,0.0475 -0.74651,0.019 -1.33613,-0.009 -0.63717,-0.009 -1.10787,-0.0712 -0.52304,-0.0475 -0.87017,-0.13316 -0.40416,-0.076 -0.61813,-0.19494 -0.88441,-0.34236 -1.62619,-0.75127 -0.79408,-0.38516 -1.455,-0.85588 -0.70846,-0.44221 -1.28383,-0.96049 -0.62292,-0.49452 -1.12215,-1.06984 -0.53729,-0.55155 -0.96049,-1.184 -0.45649,-0.60862 -0.79881,-1.30285 -0.3804,-0.67045 -0.64191,-1.42646 -0.79883,-2.27761 -0.18064,-0.63715 -0.23775,-1.44549 -0.0997,-0.74653 -0.076,-1.58814 -0.0237,-0.80358 0.062,-1.61666 0.0475,-0.80358 0.18545,-1.54059 0.10945,-0.74653 0.29481,-1.35515 0.16165,-0.64666 0.39465,-1.06036 0.20447,-0.48022 0.47073,-0.65618 0.12366,-0.13791 0.25678,-0.17115 0.3994,-0.10945 m 17.8642,-1.15069 1.80686,0.3804 0.54681,0.15689 1.02232,0.44223 0.49925,0.23772 0.91296,0.58963 0.44221,0.30907 0.78929,0.72749 0.38042,0.37564 0.66092,0.84638 0.31383,0.43745 0.5278,0.95573 0.24249,0.48975 0.37563,1.0556 0.1664,0.53731 0.21872,1.13642 0.14265,1.78309 0.003,0.59913 -0.0522,0.96048 -0.0382,0.44695 -0.17114,0.77506 -0.0997,0.38514 -0.33286,0.75605 -0.73226,1.29333 -0.29955,0.48975 -0.72273,0.89393 -0.38039,0.43269 -0.85115,0.77506 -0.43744,0.37562 -0.95098,0.64192 -0.485,0.30431 -1.01281,0.49453 -0.51352,0.22823 -1.04609,0.33285 -0.52302,0.14265 -1.04609,0.1569 -0.5183,0.057 -1.01277,-0.0382 -0.49929,-0.0427 -0.94146,-0.24251 -0.62765,-0.19969 -1.25053,-0.5706 -0.61815,-0.30907 -1.16019,-0.73226 -0.56108,-0.38037 -0.96526,-0.82263 -1.11265,-1.26481 -0.35661,-0.52302 -0.56108,-1.06986 -0.25678,-0.5373 -0.36611,-1.08412 -0.16165,-0.54207 -0.18065,-1.07935 -0.0667,-0.54206 -0.009,-1.0651 0.019,-0.52782 0.15215,-1.03656 0.095,-0.50875 0.30433,-0.98903 0.17114,-0.48501 0.44698,-0.92721 0.23774,-0.45647 0.57536,-0.84637 0.3043,-0.41844 0.69423,-0.75602 0.36137,-0.36613 0.79883,-0.65142 0.41366,-0.31384 0.89868,-0.5278 0.45648,-0.24726 0.98426,-0.39465 0.49927,-0.18065 1.06035,-0.24249 0.53255,-0.0997 1.12216,-0.0712 0.56582,-0.019 m -0.35661,5.45864 -0.60863,0.11891 -0.30431,0.0762 -0.59911,0.25201 -0.29957,0.14264 -0.58011,0.38515 -0.84637,0.72274 -0.48976,0.48975 -0.64667,1.0223 -0.27103,0.5183 -0.21396,1.0556 -0.0475,0.52777 0.22827,1.05562 0.8416,1.5358 0.42319,0.53733 0.97477,0.77505 0.50401,0.33284 1.10314,0.36137 0.56108,0.1284 1.17447,-0.062 0.5896,-0.0857 1.18873,-0.50402 0.3471,-0.1759 0.58486,-0.48022 0.27578,-0.25678 0.44221,-0.60388 0.20447,-0.31856 0.2948,-0.69898 0.1284,-0.35664 0.1379,-0.75125 0.0522,-0.38039 -0.019,-0.76556 -0.0285,-0.38515 -0.18063,-0.75125 -0.11416,-0.36616 -0.34712,-0.6942 -0.718,-0.93196 -0.25678,-0.25676 -0.54679,-0.41369 -0.27579,-0.19018 -0.57058,-0.2758 -0.29006,-0.12366 -0.59436,-0.1474 -0.29955,-0.057 -0.60387,-0.0146 z"
       fill="#ffac92"
       id="path4"
       style="stroke-width:0.475491" />
  </g>
</svg>
